<mxfile modified="2023-12-15T09:02:19.510Z" host="app.diagrams.net" agent="Mozilla/5.0 (Windows NT 10.0; Win64; x64) AppleWebKit/537.36 (KHTML, like Gecko) Chrome/120.0.0.0 Safari/537.36" etag="vLgf9nem2t_RHaON1t3t" version="22.1.9" type="github">
  <diagram id="l8hXMBHkgcEJcSW0mbfh" name="Page-1">
    <mxGraphModel dx="1841" dy="1076" grid="1" gridSize="10" guides="1" tooltips="1" connect="1" arrows="1" fold="1" page="1" pageScale="1" pageWidth="1169" pageHeight="827" math="0" shadow="0">
      <root>
        <mxCell id="0" />
        <mxCell id="1" parent="0" />
        <mxCell id="3GR9HnmvEChoSbXuBHMB-12" value="" style="rounded=0;whiteSpace=wrap;html=1;fillColor=none;dashed=1;dashPattern=8 8;strokeColor=#f54242;" vertex="1" parent="1">
          <mxGeometry x="80" y="154" width="760" height="520" as="geometry" />
        </mxCell>
        <mxCell id="3GR9HnmvEChoSbXuBHMB-3" value="" style="shape=image;verticalLabelPosition=bottom;verticalAlign=top;imageAspect=0;aspect=fixed;image=data:image/svg+xml,PHN2ZyB4bWxucz0iaHR0cDovL3d3dy53My5vcmcvMjAwMC9zdmciIHZlcnNpb249IjEiIHZpZXdCb3g9IjAgMCA0OCA0OCIgZW5hYmxlLWJhY2tncm91bmQ9Im5ldyAwIDAgNDggNDgiPiYjeGE7ICAgIDxwYXRoIGZpbGw9IiM5MENBRjkiIGQ9Ik0zOSwxNnY3aC02di03aC0ydjdoLTZ2LTdoLTJ2N2gtN3YyaDd2NmgtN3YyaDd2NmgtN3YyaDI1VjE2SDM5eiBNMzksMjV2NmgtNnYtNkgzOXogTTI1LDI1aDZ2NmgtNlYyNXogTTI1LDMzaDZ2NmgtNlYzM3ogTTMzLDM5di02aDZ2NkgzM3oiLz4mI3hhOyAgICA8cG9seWdvbiBmaWxsPSIjMDBCQ0Q0IiBwb2ludHM9IjQwLDggOCw4IDgsNDAgMTYsNDAgMTYsMTYgNDAsMTYiLz4mI3hhOyAgICA8cGF0aCBmaWxsPSIjMDA5N0E3IiBkPSJNNyw3djM0aDEwVjE3aDI0VjdIN3ogTTksMjN2LTZoNnY2SDl6IE0xNSwyNXY2SDl2LTZIMTV6IE0xNyw5aDZ2NmgtNlY5eiBNMjUsOWg2djZoLTZWOXogTTE1LDl2Nkg5VjlIMTV6IE05LDM5di02aDZ2Nkg5eiBNMzksMTVoLTZWOWg2VjE1eiIvPiYjeGE7PC9zdmc+;" vertex="1" parent="1">
          <mxGeometry x="160" y="343.9" width="48" height="48" as="geometry" />
        </mxCell>
        <mxCell id="3GR9HnmvEChoSbXuBHMB-5" value="" style="sketch=0;outlineConnect=0;fontColor=#232F3E;gradientColor=none;fillColor=#7AA116;strokeColor=none;dashed=0;verticalLabelPosition=bottom;verticalAlign=top;align=center;html=1;fontSize=12;fontStyle=0;aspect=fixed;pointerEvents=1;shape=mxgraph.aws4.bucket;" vertex="1" parent="1">
          <mxGeometry x="441.15" y="170" width="57.7" height="60" as="geometry" />
        </mxCell>
        <mxCell id="3GR9HnmvEChoSbXuBHMB-21" style="edgeStyle=orthogonalEdgeStyle;rounded=0;orthogonalLoop=1;jettySize=auto;html=1;startArrow=none;startFill=0;" edge="1" parent="1" source="3GR9HnmvEChoSbXuBHMB-7" target="3GR9HnmvEChoSbXuBHMB-9">
          <mxGeometry relative="1" as="geometry" />
        </mxCell>
        <mxCell id="3GR9HnmvEChoSbXuBHMB-29" style="edgeStyle=orthogonalEdgeStyle;rounded=0;orthogonalLoop=1;jettySize=auto;html=1;entryX=1;entryY=0.75;entryDx=0;entryDy=0;" edge="1" parent="1" source="3GR9HnmvEChoSbXuBHMB-7" target="3GR9HnmvEChoSbXuBHMB-15">
          <mxGeometry relative="1" as="geometry">
            <Array as="points">
              <mxPoint x="680" y="459" />
              <mxPoint x="680" y="459" />
            </Array>
          </mxGeometry>
        </mxCell>
        <mxCell id="3GR9HnmvEChoSbXuBHMB-7" value="" style="dashed=0;outlineConnect=0;html=1;align=center;labelPosition=center;verticalLabelPosition=bottom;verticalAlign=top;shape=mxgraph.weblogos.json" vertex="1" parent="1">
          <mxGeometry x="710" y="406.1" width="70" height="75.8" as="geometry" />
        </mxCell>
        <mxCell id="3GR9HnmvEChoSbXuBHMB-19" style="edgeStyle=orthogonalEdgeStyle;rounded=0;orthogonalLoop=1;jettySize=auto;html=1;entryX=0;entryY=0.5;entryDx=0;entryDy=0;" edge="1" parent="1" source="3GR9HnmvEChoSbXuBHMB-8" target="3GR9HnmvEChoSbXuBHMB-15">
          <mxGeometry relative="1" as="geometry" />
        </mxCell>
        <mxCell id="3GR9HnmvEChoSbXuBHMB-8" value="" style="shape=image;html=1;verticalAlign=top;verticalLabelPosition=bottom;labelBackgroundColor=#ffffff;imageAspect=0;aspect=fixed;image=https://cdn0.iconfinder.com/data/icons/devices-42/512/Macbook-128.png" vertex="1" parent="1">
          <mxGeometry x="120" y="380" width="128" height="128" as="geometry" />
        </mxCell>
        <mxCell id="3GR9HnmvEChoSbXuBHMB-28" style="edgeStyle=orthogonalEdgeStyle;rounded=0;orthogonalLoop=1;jettySize=auto;html=1;" edge="1" parent="1" source="3GR9HnmvEChoSbXuBHMB-9" target="3GR9HnmvEChoSbXuBHMB-7">
          <mxGeometry relative="1" as="geometry">
            <Array as="points">
              <mxPoint x="850" y="460" />
              <mxPoint x="850" y="460" />
            </Array>
          </mxGeometry>
        </mxCell>
        <mxCell id="3GR9HnmvEChoSbXuBHMB-9" value="" style="outlineConnect=0;dashed=0;verticalLabelPosition=bottom;verticalAlign=top;align=center;html=1;shape=mxgraph.aws3.emr_engine;fillColor=#F58534;gradientColor=none;" vertex="1" parent="1">
          <mxGeometry x="920" y="414" width="82.5" height="60" as="geometry" />
        </mxCell>
        <mxCell id="3GR9HnmvEChoSbXuBHMB-17" style="edgeStyle=orthogonalEdgeStyle;rounded=0;orthogonalLoop=1;jettySize=auto;html=1;startArrow=classic;startFill=1;" edge="1" parent="1" source="3GR9HnmvEChoSbXuBHMB-10" target="3GR9HnmvEChoSbXuBHMB-15">
          <mxGeometry relative="1" as="geometry" />
        </mxCell>
        <mxCell id="3GR9HnmvEChoSbXuBHMB-10" value="" style="html=1;verticalLabelPosition=bottom;align=center;labelBackgroundColor=#ffffff;verticalAlign=top;strokeWidth=2;strokeColor=#0080F0;shadow=0;dashed=0;shape=mxgraph.ios7.icons.documents;" vertex="1" parent="1">
          <mxGeometry x="450" y="300" width="40.1" height="50" as="geometry" />
        </mxCell>
        <mxCell id="3GR9HnmvEChoSbXuBHMB-11" value="" style="sketch=0;aspect=fixed;pointerEvents=1;shadow=0;dashed=0;html=1;strokeColor=none;labelPosition=center;verticalLabelPosition=bottom;verticalAlign=top;align=center;fillColor=#00188D;shape=mxgraph.mscae.enterprise.document" vertex="1" parent="1">
          <mxGeometry x="450.1" y="580" width="40" height="50" as="geometry" />
        </mxCell>
        <mxCell id="3GR9HnmvEChoSbXuBHMB-13" style="edgeStyle=orthogonalEdgeStyle;rounded=0;orthogonalLoop=1;jettySize=auto;html=1;entryX=0.492;entryY=0.093;entryDx=0;entryDy=0;entryPerimeter=0;startArrow=classic;startFill=1;" edge="1" parent="1" source="3GR9HnmvEChoSbXuBHMB-5" target="3GR9HnmvEChoSbXuBHMB-10">
          <mxGeometry relative="1" as="geometry" />
        </mxCell>
        <mxCell id="3GR9HnmvEChoSbXuBHMB-20" style="edgeStyle=orthogonalEdgeStyle;rounded=0;orthogonalLoop=1;jettySize=auto;html=1;startArrow=none;startFill=0;" edge="1" parent="1">
          <mxGeometry relative="1" as="geometry">
            <mxPoint x="549.9699999999998" y="443.5" as="sourcePoint" />
            <mxPoint x="710" y="443.5" as="targetPoint" />
          </mxGeometry>
        </mxCell>
        <mxCell id="3GR9HnmvEChoSbXuBHMB-15" value="" style="strokeColor=#dddddd;shadow=1;strokeWidth=1;rounded=1;absoluteArcSize=1;arcSize=2;" vertex="1" parent="1">
          <mxGeometry x="390.02" y="414" width="159.95" height="60" as="geometry" />
        </mxCell>
        <mxCell id="3GR9HnmvEChoSbXuBHMB-16" value="API&lt;br&gt;Python Layer" style="editableCssRules=.*;html=1;fontColor=#999999;shape=image;verticalLabelPosition=middle;verticalAlign=middle;labelPosition=right;align=left;spacingLeft=20;part=1;points=[];imageAspect=0;image=data:image/svg+xml,PHN2ZyB4bWxucz0iaHR0cDovL3d3dy53My5vcmcvMjAwMC9zdmciIHhtbG5zOnY9Imh0dHBzOi8vdmVjdGEuaW8vbmFubyIgd2lkdGg9IjIwLjAxMDAwMDIyODg4MTgzNiIgaGVpZ2h0PSI5LjQ5NDcyOTA0MjA1MzIyMyIgdmlld0JveD0iMC4wMDAyMDYzODQ1NjA0NDI1Mjk2MiAwIDIwLjAxMDAwMDIyODg4MTgzNiA5LjQ5NDcyOTA0MjA1MzIyMyI+JiN4YTsJPHN0eWxlIHR5cGU9InRleHQvY3NzIj4mI3hhOwkuc3Qwe2ZpbGw6IzQyODVmNDt9JiN4YTsJLnN0MXtmaWxsOiM2NjlkZjY7fSYjeGE7CS5zdDJ7ZmlsbDojYWVjYmZhO30mI3hhOwk8L3N0eWxlPiYjeGE7CTxwYXRoIGNsYXNzPSJzdDAiIGQ9Ik0xLjQ3NiA4LjQzYTQuMzEgNC4zMSAwIDEgMSA2LjA3LS40IDMuNjggMy42OCAwIDAgMS0uMzkuNCA0LjMyIDQuMzIgMCAwIDEtNS42OCAwem01LjItNS4yYTMuMDcgMy4wNyAwIDEgMC0uNCA0LjMzIDMgMyAwIDAgMCAuNC0uNCAzLjA3IDMuMDcgMCAwIDAgMC0zLjkzem02LjE5IDUuMmE0LjMxIDQuMzEgMCAxIDEgNi4wNy0uNCAzLjc4IDMuNzggMCAwIDEtLjQuNCA0LjMxIDQuMzEgMCAwIDEtNS42NyAwem01LjItNS4yYTMuMDcgMy4wNyAwIDEgMC0uNCA0LjMzIDMgMyAwIDAgMCAuNC0uNCAzLjA4IDMuMDggMCAwIDAgMC0zLjkzeiIvPiYjeGE7CTxnIGNsYXNzPSJzdDEiPiYjeGE7CQk8Y2lyY2xlIGN4PSI0LjMxNiIgY3k9IjUuMTkiIHI9IjEuNjkiLz4mI3hhOwkJPGNpcmNsZSBjeD0iMTUuNjk2IiBjeT0iNS4xOSIgcj0iMS42OSIvPiYjeGE7CTwvZz4mI3hhOwk8cGF0aCBjbGFzcz0ic3QyIiBkPSJNMTIuMzk2LjU2YS4zMS4zMSAwIDAgMC0uMTgtLjU2aC00LjQyYS4zMS4zMSAwIDAgMC0uMTguNTYgNS43MyA1LjczIDAgMCAxIDIuMTMgMi45Mi4yOC4yOCAwIDAgMCAuMzYuMTYuMjkuMjkgMCAwIDAgLjE3LS4xNyA1LjY3IDUuNjcgMCAwIDEgMi4xMi0yLjkxeiIvPiYjeGE7PC9zdmc+;" vertex="1" parent="3GR9HnmvEChoSbXuBHMB-15">
          <mxGeometry width="30" height="14" relative="1" as="geometry">
            <mxPoint x="15" y="23" as="offset" />
          </mxGeometry>
        </mxCell>
        <mxCell id="3GR9HnmvEChoSbXuBHMB-18" style="edgeStyle=orthogonalEdgeStyle;rounded=0;orthogonalLoop=1;jettySize=auto;html=1;entryX=0.5;entryY=0;entryDx=0;entryDy=0;entryPerimeter=0;" edge="1" parent="1" source="3GR9HnmvEChoSbXuBHMB-15" target="3GR9HnmvEChoSbXuBHMB-11">
          <mxGeometry relative="1" as="geometry" />
        </mxCell>
        <mxCell id="3GR9HnmvEChoSbXuBHMB-22" value="Choke Sizing Tool&amp;nbsp;" style="text;html=1;strokeColor=none;fillColor=none;align=center;verticalAlign=middle;whiteSpace=wrap;rounded=0;fontStyle=1;fontSize=16;" vertex="1" parent="1">
          <mxGeometry x="80" y="154" width="160" height="30" as="geometry" />
        </mxCell>
        <mxCell id="3GR9HnmvEChoSbXuBHMB-23" value="Static object storage" style="text;html=1;strokeColor=none;fillColor=none;align=left;verticalAlign=middle;whiteSpace=wrap;rounded=0;fontStyle=1;fontSize=13;" vertex="1" parent="1">
          <mxGeometry x="505" y="185" width="160" height="25" as="geometry" />
        </mxCell>
        <mxCell id="3GR9HnmvEChoSbXuBHMB-25" value="&lt;b&gt;PVT&lt;br style=&quot;border-color: var(--border-color); font-size: 13px;&quot;&gt;&lt;span style=&quot;font-size: 13px;&quot;&gt;Choke Trim&lt;/span&gt;&lt;/b&gt;" style="text;html=1;strokeColor=none;fillColor=none;align=left;verticalAlign=middle;whiteSpace=wrap;rounded=0;" vertex="1" parent="1">
          <mxGeometry x="505" y="310" width="90" height="30" as="geometry" />
        </mxCell>
        <mxCell id="3GR9HnmvEChoSbXuBHMB-26" value="&lt;b&gt;PDF report with results&lt;/b&gt;" style="text;html=1;strokeColor=none;fillColor=none;align=left;verticalAlign=middle;whiteSpace=wrap;rounded=0;" vertex="1" parent="1">
          <mxGeometry x="498.85" y="590" width="90" height="30" as="geometry" />
        </mxCell>
        <mxCell id="3GR9HnmvEChoSbXuBHMB-27" value="&lt;b&gt;Payload with PVT, choke CV, FL&lt;/b&gt;" style="text;html=1;strokeColor=none;fillColor=none;align=left;verticalAlign=middle;whiteSpace=wrap;rounded=0;" vertex="1" parent="1">
          <mxGeometry x="710" y="370" width="110" height="30" as="geometry" />
        </mxCell>
        <mxCell id="3GR9HnmvEChoSbXuBHMB-30" value="&lt;b&gt;Results&lt;/b&gt;" style="text;html=1;strokeColor=none;fillColor=none;align=left;verticalAlign=middle;whiteSpace=wrap;rounded=0;" vertex="1" parent="1">
          <mxGeometry x="720" y="490" width="60" height="30" as="geometry" />
        </mxCell>
        <mxCell id="3GR9HnmvEChoSbXuBHMB-31" value="&lt;b&gt;Production Profile definition&lt;/b&gt;" style="text;html=1;strokeColor=none;fillColor=none;align=left;verticalAlign=middle;whiteSpace=wrap;rounded=0;" vertex="1" parent="1">
          <mxGeometry x="148" y="490" width="102" height="30" as="geometry" />
        </mxCell>
        <mxCell id="3GR9HnmvEChoSbXuBHMB-32" value="&lt;b&gt;FM Engine&lt;/b&gt;" style="text;html=1;strokeColor=none;fillColor=none;align=left;verticalAlign=middle;whiteSpace=wrap;rounded=0;" vertex="1" parent="1">
          <mxGeometry x="926.25" y="490" width="70" height="30" as="geometry" />
        </mxCell>
      </root>
    </mxGraphModel>
  </diagram>
</mxfile>
